<svg width="16" height="16" xmlns="http://www.w3.org/2000/svg" id="interest-consumption-small" data-supported-dps="16x16">
  <g fill="none" fill-rule="evenodd">
    <rect width="16" height="16" rx="8"/>
    <circle fill="#F5BB5C" cx="8" cy="8" r="7"/>
    <path d="M8.82 13.4h-1.6a.54.54 0 01-.54-.54v-1.33h2.68v1.33a.54.54 0 01-.54.54z" fill="#FFE1B2"/>
    <path d="M6.69 11.79v-.26c0-.34-.055-.677-.16-1A3.45 3.45 0 006 9.75a3.26 3.26 0 01-1.19-2.49 3.21 3.21 0 116.42 0A3.36 3.36 0 0110 9.8c.07-.05-.08.06-.18.2a1.86 1.86 0 00-.23.47 3.25 3.25 0 00-.15 1v.26" fill="#FCF0DE"/>
    <path d="M7.46 4.78a2.18 2.18 0 00-1.22.65 2.43 2.43 0 00-.68 1.22" stroke="#FFF" stroke-width="2" stroke-linecap="round" stroke-linejoin="round"/>
    <path d="M8.82 13.4h-1.6a.54.54 0 01-.54-.54v-1.33h2.68v1.33a.54.54 0 01-.54.54h0z" stroke="#5D3B01" stroke-linecap="round" stroke-linejoin="round"/>
    <path d="M6.68 11.79v-.26a3.24 3.24 0 00-.15-1 2 2 0 00-.26-.47 2.54 2.54 0 00-.37-.43 3.41 3.41 0 01-.37-.39 3.17 3.17 0 01-.72-2h0a3.21 3.21 0 016.42 0 3.25 3.25 0 01-.73 2c-.17.21-.36.4-.57.57a2 2 0 00-.2.21 1.82 1.82 0 00-.22.47 3.25 3.25 0 00-.15 1v.26M4.6 2.636l.61.791M11.415 2.632l-.605.795M8 1.5v1.26" stroke="#5D3B01" stroke-linecap="round" stroke-linejoin="round"/>
  </g>
</svg>
