<svg xmlns="http://www.w3.org/2000/svg" viewBox="0 0 24 24" data-supported-dps="24x24" fill="currentColor" width="24" height="24" focusable="false">
  <path d="M6 15l3 3-6 3zM20.15 2.65h-.08L19 2.73a12 12 0 00-8.34 4.2l-.82 1-4.66 1.64a.8.8 0 00-.29 1.32l8.22 8.22a.8.8 0 001.32-.29l1.7-4.67 1-.81A12 12 0 0021.27 5l.07-1.07a1.2 1.2 0 00-1.12-1.28h-.07zm-4.29 9.27L12 15.17 8.83 12l3.25-3.82a10 10 0 011.54-1.46l3.7 3.7a10 10 0 01-1.46 1.5zm3.54-7a10.16 10.16 0 01-1.5 4.62L14.46 6.1a10.16 10.16 0 014.66-1.5h.3z"></path>
</svg>